<svg xmlns="http://www.w3.org/2000/svg" version="1.1" xmlns:xlink="http://www.w3.org/1999/xlink" xmlns:svgjs="http://svgjs.dev/svgjs" width="308.7612359841165" height="304.915625" viewBox="0 0 308.7612359841165 304.915625">
  <g transform="matrix(1,0,0,1,-0.7139396204514696,-0.7139396204514696)">
    <svg viewBox="0 0 275 275" data-background-color="#ffffff" preserveAspectRatio="xMidYMid meet" height="304.915625" width="308.7612359841165" xmlns="http://www.w3.org/2000/svg" xmlns:xlink="http://www.w3.org/1999/xlink">
      <g id="tight-bounds" transform="matrix(1,0,0,1,0.19633339562417973,0.1963333956241513)">
        <svg viewBox="0 0 274.60733320875164 274.60733320875164" height="274.60733320875164" width="274.60733320875164">
          <g>
            <path d="M0 137.304c0-75.831 61.473-137.304 137.304-137.304 75.831 0 137.304 61.473 137.303 137.304 0 75.831-61.473 137.304-137.303 137.303-75.831 0-137.304-61.473-137.304-137.303zM137.304 271.938c74.356 0 134.634-60.278 134.634-134.634 0-74.356-60.278-134.634-134.634-134.635-74.356 0-134.634 60.278-134.634 134.635 0 74.356 60.278 134.634 134.634 134.634z" data-fill-palette-color="tertiary" fill="#000000" stroke="transparent"></path>
            <ellipse rx="131.81151994020078" ry="131.81151994020078" cx="137.30366660437582" cy="137.30366660437582" fill="#000000" stroke="transparent" stroke-width="0" fill-opacity="1" data-fill-palette-color="tertiary"></ellipse>
          </g>
          <g transform="matrix(1,0,0,1,65.06312724960716,62.48917647402102)">
            <svg viewBox="0 0 144.48107870953731 149.6289802607096" height="149.6289802607096" width="144.48107870953731">
              <g>
                <svg viewBox="0 0 144.48107870953731 149.6289802607096" height="149.6289802607096" width="144.48107870953731">
                  <g>
                    <svg viewBox="0 0 144.48107870953731 149.6289802607096" height="149.6289802607096" width="144.48107870953731">
                      <g>
                        <path d="M0 149.629v-149.629h144.481v149.629z" fill="#000000" stroke="transparent" stroke-width="0" rx="0%" data-fill-palette-color="tertiary"></path>
                        <path d="M3.494 146.135v-142.641h137.493v142.641z" fill="#ffffff" stroke="transparent" stroke-width="0" rx="0%" data-fill-palette-color="quaternary"></path>
                        <path d="M10.482 139.147v-128.665h123.517v128.665z" fill="#000000" stroke="transparent" stroke-width="0" data-fill-palette-color="tertiary"></path>
                      </g>
                      <g transform="matrix(1,0,0,1,20.964730483223757,20.964730483223757)" id="textblocktransform">
                        <svg viewBox="0 0 102.55161774308979 107.69951929426207" height="107.69951929426207" width="102.55161774308979">
                          <g>
                            <svg viewBox="0 0 102.55161774308979 107.69951929426207" height="107.69951929426207" width="102.55161774308979">
                              <g transform="matrix(1,0,0,1,0,0)">
                                <svg width="102.55161774308979" viewBox="1.8300000429153442 -38.09000015258789 36.959999084472656 38.81999969482422" height="107.69951929426207" data-palette-color="#ffffff">
                                  <path d="M10.99 0.49L10.99 0.49Q9.38 0.49 8.13-0.29L8.13-0.29Q6.88 0.49 5.82 0.49 4.76 0.49 4.08 0.31 3.39 0.12 2.88-0.2L2.88-0.2Q1.83-0.83 1.83-1.78L1.83-1.78Q1.83-2.27 2.1-2.64L2.1-2.64Q2.64-2.22 3.47-2.22L3.47-2.22Q5.64-2.22 6.47-4.08L6.47-4.08 6.47-16.02Q6.47-17.14 6.01-17.68L6.01-17.68Q5.27-18.58 3.49-19.46L3.49-19.46Q5.15-20.21 5.64-20.8L5.64-20.8Q6.47-21.75 6.47-22.95L6.47-22.95 6.47-33.25Q5.64-35.13 3.47-35.13L3.47-35.13Q2.64-35.13 2.1-34.72L2.1-34.72Q1.83-35.08 1.83-35.56 1.83-36.04 2.11-36.45 2.39-36.87 2.88-37.16L2.88-37.16Q4-37.84 5.46-37.84 6.91-37.84 8.13-37.04L8.13-37.04Q9.4-37.84 10.83-37.84 12.26-37.84 13.48-37.23L13.48-37.23Q16.36-38.09 18.82-38.09 21.29-38.09 23.19-37.82 25.1-37.55 26.83-36.88 28.56-36.21 30.09-35.08 31.62-33.96 32.81-32.28L32.81-32.28Q35.35-28.74 36.06-22.9L36.06-22.9Q36.21-21.46 36.67-20.87L36.67-20.87Q37.45-19.92 38.79-19.46L38.79-19.46Q37.38-18.92 36.94-18.36L36.94-18.36Q36.21-17.43 36.06-16.02L36.06-16.02Q35.25-7.91 30.62-3.52L30.62-3.52Q26.15 0.73 19.02 0.73L19.02 0.73Q16.16 0.73 13.89-0.15L13.89-0.15Q12.79 0.49 10.99 0.49ZM15.45-34.25L15.45-3.83Q16.63-2.51 18.57-2.51 20.51-2.51 21.94-3.28 23.36-4.05 24.34-5.66L24.34-5.66Q26.32-8.96 26.32-16.02L26.32-16.02Q26.32-17.55 25.83-18.12L25.83-18.12Q25.17-18.9 23.66-19.46L23.66-19.46Q25.15-19.97 25.59-20.48L25.59-20.48Q26.32-21.36 26.32-22.72 26.32-24.07 26.12-25.42 25.93-26.76 25.5-28.08 25.07-29.39 24.43-30.6 23.78-31.81 22.88-32.74L22.88-32.74Q20.9-34.77 18.21-34.77L18.21-34.77Q17.38-34.77 16.6-34.73 15.82-34.69 15.45-34.25L15.45-34.25ZM27.59-30.52L27.59-30.52Q29.42-25.42 29.42-21.78L29.42-21.78Q29.42-20.53 29.21-20.31 29-20.09 28.76-19.92L28.76-19.92Q28.32-19.63 27.81-19.46L27.81-19.46Q29.27-18.8 29.35-18.19L29.35-18.19Q29.39-17.92 29.39-17.65L29.39-17.65 29.39-17.04Q29.39-13.75 28.71-10.66 28.03-7.57 27.69-6.47L27.69-6.47Q28.78-6.79 29.28-7.92 29.79-9.06 30.14-10.36 30.49-11.67 30.71-13.13L30.71-13.13Q31.2-16.14 31.2-19.41L31.2-19.41Q31.2-25.27 29.47-28.86L29.47-28.86Q28.71-30.27 27.59-30.52ZM8.81-9.64L8.81-6.47Q10.03-6.93 10.16-9.67L10.16-9.67Q10.3-12.4 10.3-17.24 10.3-22.07 10.29-23.67 10.28-25.27 10.25-26.25L10.25-26.25Q10.18-29.13 9.7-29.72 9.23-30.32 8.81-30.52L8.81-30.52Q8.81-22.02 8.52-20.85L8.52-20.85Q8.18-19.87 6.86-19.46L6.86-19.46Q8.33-18.95 8.52-18.21L8.52-18.21Q8.81-17.04 8.81-9.64L8.81-9.64Z" opacity="1" transform="matrix(1,0,0,1,0,0)" fill="#ffffff" class="wordmark-text-0" data-fill-palette-color="quaternary" id="text-0"></path>
                                </svg>
                              </g>
                            </svg>
                          </g>
                        </svg>
                      </g>
                    </svg>
                  </g>
                </svg>
              </g>
            </svg>
          </g>
        </svg>
      </g>
    </svg>
  </g>
</svg>
